<svg xmlns="http://www.w3.org/2000/svg" viewBox="0 0 250 250" width="250" height="250">
	<style>
		tspan { white-space:pre }
		.shp0 { fill: #012853 } 
		.shp1 { fill: #fffffd } 
		.shp2 { fill: #36b4e6 } 
	</style>
	<g >
		<path class="shp0" d="M106.59 18.3L88.26 36.61L36.4 36.61L36.5 88.46C8.36 116.62 0.18 124.89 0.16 125.01C0.14 125.13 2.18 127.29 4.7 129.81C7.22 132.34 9.31 134.4 9.34 134.4C9.38 134.4 15.43 140.44 22.8 147.82C30.18 155.21 36.3 161.36 36.42 161.49C36.55 161.63 36.64 172.75 36.64 187.56L36.64 213.39L88.36 213.39L125.09 250.12L161.89 213.4L213.6 213.39C213.55 209.94 213.55 198.31 213.57 185.33L213.61 161.73C241.81 133.45 249.97 125.13 249.94 125C249.91 124.87 241.73 116.61 231.76 106.64L213.64 88.51L213.48 36.61L161.89 36.61C133.49 8.24 125.17 0 125.08 0C124.98 0 116.66 8.24 106.59 18.3Z" />
		<path class="shp1" d="M107.99 25.66L90.98 42.64L42.79 42.75L42.67 90.92L8.65 125.12L42.67 159.08L42.67 207.37L91.01 207.37L125.12 241.45L159.35 207.37L207.35 207.25L207.32 159.32C233.67 133 241.32 125.25 241.32 125.12C241.32 124.99 233.65 117.23 224.27 107.89L207.22 90.9L207.38 42.75L158.99 42.63L125 8.67" />
		<path class="shp0" d="M109.21 32.88L93.42 48.65L48.7 48.65L48.74 93.31C37.34 104.72 34.03 108.11 34.01 108.21C34 108.3 75.08 108.38 125.3 108.38L216.61 108.38L201.54 93.33L201.54 48.65L156.82 48.65C132.35 24.2 125.19 17.1 125.12 17.1C125.05 17.1 117.89 24.2 109.21 32.88Z" />
		<path fill-rule="evenodd" class="shp1" d="M125.12 20.23C125.19 20.23 132.13 27.11 155.86 50.82L199.37 50.82L199.25 94.43L197.81 95.36L194.07 93.13C192.01 91.9 188.54 89.7 186.35 88.24C184.17 86.77 180.64 84.28 178.52 82.69C176.4 81.1 173.04 78.45 171.05 76.79C169.06 75.13 166.62 73.04 165.62 72.14C164.63 71.24 161.98 68.71 159.74 66.5C157.51 64.3 154.47 61.2 152.99 59.61C151.52 58.01 148.86 54.98 147.09 52.86C145.32 50.74 142.43 47.12 140.69 44.8C138.94 42.48 137.19 40.1 136.8 39.52C136.34 38.82 136.05 38.03 135.85 36.01L132.96 36.01L132.9 37.51C132.84 38.87 132.77 39.04 132.23 39.26C131.9 39.39 131.22 39.5 130.73 39.51C130.23 39.52 129.7 39.38 129.56 39.21C129.42 39.04 129.04 37.46 128.13 32.51L125.06 32.51C123.37 32.51 121.99 32.54 121.99 32.57C121.99 32.61 121.72 34.1 121.38 35.89C121.04 37.67 120.63 39.22 120.47 39.31C120.31 39.41 119.74 39.49 119.21 39.5C118.68 39.5 118.01 39.34 117.71 39.14C117.25 38.83 117.16 38.56 117.16 35.89L115.89 35.89C115.18 35.89 114.48 36.02 114.32 36.19C114.15 36.35 114.02 36.98 114.02 37.57C114.02 38.57 113.81 38.94 111.46 42.15C110.06 44.07 107.47 47.43 105.72 49.61C103.97 51.8 101.09 55.21 99.32 57.2C97.56 59.19 94.96 61.99 93.56 63.43C92.16 64.87 89.27 67.68 87.15 69.67C85.03 71.67 81.61 74.7 79.56 76.42C77.5 78.14 73.98 80.92 71.72 82.61C69.47 84.3 65.83 86.88 63.65 88.34C61.46 89.81 58.04 91.98 52.43 95.34L50.99 94.51L50.87 50.82L94.38 50.82L109.69 35.53C118.11 27.11 125.05 20.23 125.12 20.23ZM125.96 34.91L126.7 38.9L125.13 38.96C124.26 38.99 123.53 38.99 123.5 38.96C123.47 38.92 123.61 38.06 123.8 37.03C124 36 124.16 35.11 124.16 35.04C124.16 34.98 124.56 34.92 125.96 34.91ZM122.71 42.15C123.14 42.15 123.19 42.31 123.19 43.59C123.19 44.88 123.14 45.04 122.71 45.04C122.28 45.04 122.23 44.88 122.23 43.59C122.23 42.31 122.28 42.15 122.71 42.15ZM125 42.15C125.57 42.15 125.6 42.22 125.6 43.47C125.6 44.73 125.57 44.8 125 44.8C124.43 44.8 124.4 44.73 124.4 43.47C124.4 42.22 124.43 42.15 125 42.15ZM127.4 42.15C127.99 42.15 128.01 42.2 128.01 43.59C128.01 44.95 127.98 45.03 127.47 44.98C126.99 44.92 126.92 44.77 126.86 43.53C126.79 42.19 126.8 42.15 127.4 42.15ZM120.72 42.41C120.94 42.39 121.01 42.8 120.96 43.87C120.91 45.15 120.83 45.37 120.36 45.55C119.83 45.75 119.82 45.71 119.77 44.22C119.73 43.05 119.81 42.64 120.07 42.55C120.26 42.48 120.56 42.42 120.72 42.41ZM129.61 42.48C129.79 42.56 130.05 42.63 130.18 42.63C130.32 42.63 130.42 43.27 130.42 44.08C130.42 45.43 130.39 45.52 129.88 45.46C129.39 45.41 129.34 45.27 129.31 43.86C129.28 42.63 129.34 42.36 129.61 42.48ZM118.19 43.12C118.55 43.11 118.61 43.34 118.61 44.56C118.61 45.92 118.57 46.02 117.89 46.36C117.49 46.56 117.11 46.72 117.04 46.72C116.98 46.72 116.91 46.03 116.88 45.17C116.85 43.86 116.91 43.58 117.3 43.37C117.56 43.24 117.96 43.12 118.19 43.12ZM132.05 43.12C132.28 43.12 132.61 43.2 132.78 43.3C132.95 43.4 133.15 44.21 133.24 45.16C133.39 46.76 133.37 46.83 132.93 46.64C132.68 46.52 132.28 46.39 132.05 46.34C131.7 46.26 131.63 45.97 131.63 44.68C131.63 43.35 131.69 43.11 132.05 43.12ZM113.67 45.83C113.76 46.26 113.77 51.07 113.55 66.47L111.2 68.23C109.91 69.2 107.98 70.59 106.92 71.32C105.86 72.06 103.53 73.58 101.74 74.71C99.95 75.83 97.34 77.41 95.95 78.21C94.56 79.01 91.68 80.57 89.56 81.69C87.44 82.8 83.81 84.62 81.49 85.73C79.16 86.83 75.64 88.43 73.65 89.28C71.66 90.14 68.79 91.32 67.26 91.92C65.74 92.53 63.92 93.22 63.22 93.47C62.53 93.73 61.96 93.88 61.96 93.81C61.96 93.74 63.77 92.48 66 90.99C68.22 89.51 71.93 86.87 74.25 85.12C76.57 83.38 79.61 80.99 81 79.83C82.4 78.67 84.78 76.63 86.3 75.29C87.82 73.95 91.13 70.8 93.66 68.28C96.19 65.76 99.51 62.3 101.04 60.57C102.57 58.85 104.96 56.08 106.34 54.42C107.72 52.76 109.9 49.97 111.18 48.23C113.49 45.08 113.51 45.07 113.67 45.83ZM136.36 45.27C136.48 45.26 137.05 45.89 137.64 46.65C138.23 47.42 139.96 49.62 141.48 51.54C143.01 53.46 145.73 56.71 147.52 58.76C149.32 60.81 152.69 64.43 155.01 66.8C157.33 69.17 161.06 72.75 163.3 74.75C165.54 76.76 168.85 79.59 170.66 81.05C172.48 82.5 175.26 84.67 176.84 85.86C178.43 87.05 181.46 89.19 183.58 90.62C185.7 92.05 187.55 93.25 187.68 93.3C187.81 93.35 187.84 93.48 187.73 93.6C187.63 93.72 185.71 93.07 183.39 92.14C181.11 91.23 177.24 89.59 174.78 88.51C172.33 87.42 168.64 85.72 166.59 84.73C164.53 83.73 161.39 82.13 159.59 81.17C157.8 80.21 154.93 78.6 153.21 77.6C151.48 76.6 148.23 74.58 145.97 73.11C143.72 71.63 140.72 69.57 136.75 66.59L136.6 60.09C136.52 56.51 136.38 51.72 136.3 49.43C136.21 47.1 136.24 45.27 136.36 45.27ZM125.12 47.47C126.26 47.46 127.81 47.62 128.62 47.83C129.41 48.04 130.12 48.25 130.18 48.31C130.25 48.36 129.85 49.13 129.29 50.03C128.73 50.93 127.56 52.56 125.12 55.64L124.43 54.85C124.05 54.42 123.11 53.2 122.35 52.14C121.59 51.08 120.77 49.81 120.51 49.31C120.26 48.82 120.08 48.36 120.12 48.3C120.15 48.24 120.83 48.03 121.62 47.84C122.42 47.65 123.99 47.48 125.12 47.47ZM117.11 50.58C117.18 50.58 117.79 51.47 118.46 52.57C119.13 53.66 120.38 55.42 122.76 58.41L121.95 59.14C121.51 59.54 120.17 60.76 118.97 61.85C117.78 62.94 116.77 63.81 116.73 63.77C116.69 63.73 116.66 61.48 116.67 58.77C116.68 56.05 116.75 53.1 116.83 52.2C116.91 51.31 117.04 50.58 117.11 50.58ZM133.05 50.7C133.17 50.83 133.35 53.87 133.64 63.95L132.93 63.42C132.55 63.12 131.15 61.88 127.44 58.41L128.86 56.6C129.65 55.61 130.87 53.93 131.57 52.87C132.27 51.81 132.84 50.83 132.84 50.7C132.83 50.54 132.9 50.54 133.05 50.7ZM125.12 60.95C125.19 60.95 126.38 62.06 127.77 63.41C129.16 64.76 130.65 66.28 131.09 66.78C131.52 67.27 131.88 67.76 131.88 67.86C131.89 67.96 130.37 70.02 125.12 76.83L124.56 76.17C124.25 75.8 122.67 73.8 118.13 67.92L118.88 67.02C119.3 66.52 120.84 64.95 122.32 63.54C123.79 62.12 125.05 60.96 125.12 60.95ZM116.77 70.34C116.92 70.54 118.48 72.57 123.43 79L116.32 88.17L116.24 86.42C116.2 85.45 116.24 81.35 116.33 77.31C116.45 71.71 116.56 70.05 116.77 70.34ZM133.58 70.5C133.67 70.6 133.82 74.64 133.91 79.48C134.06 87.33 134.04 88.23 133.71 87.91C133.51 87.71 131.88 85.65 130.08 83.33C128.28 81.02 126.8 79.06 126.8 79C126.79 78.93 127.31 78.21 127.94 77.4C128.58 76.59 130.07 74.66 131.26 73.12C132.44 71.58 133.49 70.4 133.58 70.5ZM113.24 71.14C113.29 71.16 113.21 78.05 113.06 86.46C112.91 94.88 112.74 101.89 112.69 102.06C112.63 102.24 112.17 102.36 111.56 102.36C111 102.36 109.8 102.28 107.28 102L107.28 75.39L108.74 74.36C109.54 73.8 110.86 72.84 111.67 72.22C112.48 71.61 113.19 71.12 113.24 71.14ZM136.95 71.29C137.07 71.29 138.23 72.04 139.53 72.96C140.82 73.88 142.12 74.8 142.96 75.39L142.96 88.63C142.96 97.22 142.88 101.92 142.72 102C142.59 102.07 141.34 102.2 137.41 102.48L137.41 101.28C137.42 100.61 137.31 94.49 137.18 87.67C137.05 80.85 136.89 74.37 136.83 73.28C136.76 72.11 136.81 71.29 136.95 71.29ZM105.42 76.75C105.55 76.82 105.63 81.92 105.59 102.12L104.33 102.12C103.63 102.12 101.68 102.04 96.91 101.76L96.9 81.77L99.98 79.9C101.67 78.88 103.54 77.72 104.13 77.34C104.71 76.96 105.29 76.7 105.42 76.75ZM144.77 76.59C144.83 76.59 145.78 77.16 146.88 77.87C147.97 78.57 149.88 79.73 153.35 81.77L153.34 91.7C153.33 97.17 153.25 101.68 153.15 101.73C153.05 101.79 151.09 101.92 144.65 102.24L144.65 89.41C144.65 82.36 144.7 76.59 144.77 76.59ZM125.19 81.17C125.3 81.17 126.86 83.14 128.65 85.56C130.44 87.98 131.82 90.03 131.71 90.12C131.6 90.21 130.59 90.45 129.46 90.66C128.3 90.88 126.26 91.04 124.76 91.02C123.29 91.01 121.27 90.82 120.23 90.6C119.19 90.38 118.32 90.14 118.3 90.07C118.27 89.99 119.76 87.96 121.61 85.55C123.46 83.14 125.07 81.17 125.19 81.17ZM94.93 82.88C95.16 82.86 95.23 84.89 95.23 101.76L91.07 101.55C88.78 101.44 86.83 101.3 86.73 101.25C86.63 101.2 86.55 98.01 86.55 87.19L90.59 85.04C92.81 83.86 94.76 82.89 94.93 82.88ZM155.14 82.85C155.2 82.85 157.15 83.83 163.69 87.19L163.69 101.16L163.03 101.27C162.67 101.33 160.71 101.46 155.01 101.76L155.01 92.3C155.01 87.11 155.07 82.85 155.14 82.85ZM84.5 88.21L84.55 94.62C84.59 98.15 84.59 101.06 84.55 101.09C84.52 101.12 82.71 100.98 80.52 100.79C78.33 100.6 76.46 100.44 76.36 100.44C76.26 100.44 76.18 98.54 76.18 92L77.57 91.4C78.33 91.06 80.2 90.21 81.73 89.5M165.51 88.15C165.59 88.15 167.51 89.02 173.94 92L174 96.22C174.05 100.1 174.03 100.43 173.64 100.43C173.41 100.43 172.02 100.54 170.56 100.67C169.11 100.8 167.34 100.97 165.38 101.16L165.38 94.65C165.38 91.08 165.44 88.15 165.51 88.15ZM116.32 92.24C116.52 92.24 116.95 92.35 117.29 92.49C117.85 92.71 117.89 92.84 117.89 96.22L115.97 96.7L115.97 94.47C115.96 92.65 116.03 92.24 116.32 92.24ZM133.84 92.26C134.18 92.25 134.24 92.56 134.26 94.53C134.28 96.79 134.28 96.82 133.74 96.67C133.44 96.58 132.95 96.42 132.65 96.31C132.17 96.12 132.11 95.92 132.06 94.43C132.02 92.79 132.02 92.76 132.73 92.52C133.12 92.39 133.62 92.27 133.84 92.26ZM74.07 92.97C74.17 92.97 74.25 94.59 74.25 100.19L72.99 100.05C72.29 99.97 70.58 99.75 69.19 99.57C67.8 99.38 65.41 99 63.89 98.73C62.32 98.44 61.22 98.14 61.35 98.03C61.49 97.92 63.33 97.17 65.45 96.37C67.57 95.57 70.34 94.48 71.6 93.95C72.86 93.42 73.97 92.98 74.07 92.97ZM119.86 93.15C120.39 93.25 120.46 93.39 120.5 94.44C120.53 95.32 120.45 95.63 120.18 95.68C119.98 95.71 119.69 95.74 119.54 95.74C119.37 95.74 119.28 95.27 119.3 94.47C119.32 93.78 119.32 93.17 119.29 93.12C119.27 93.07 119.52 93.09 119.86 93.15ZM130.85 94.41C130.88 95.14 130.88 95.77 130.85 95.81C130.81 95.85 130.54 95.83 130.24 95.75C129.77 95.63 129.7 95.46 129.7 94.41C129.7 93.34 129.76 93.2 130.24 93.15C130.74 93.09 130.79 93.2 130.85 94.41ZM175.99 92.97C176.12 92.97 177.02 93.3 177.98 93.71C178.94 94.11 181.35 95.08 183.34 95.85C185.33 96.62 187.37 97.4 187.87 97.58C188.36 97.76 188.77 97.99 188.77 98.09C188.77 98.18 188.09 98.38 187.26 98.51C186.43 98.65 184.83 98.92 183.7 99.11C182.58 99.31 180.41 99.62 178.88 99.81C177.36 100 176.03 100.1 175.93 100.05C175.83 100 175.75 98.38 175.75 96.46C175.75 94.29 175.84 92.97 175.99 92.97ZM122.17 93.45C122.4 93.45 122.73 93.54 122.9 93.63C123.08 93.73 123.18 94.12 123.14 94.53C123.08 95.12 122.95 95.27 122.41 95.32C121.79 95.37 121.75 95.32 121.75 94.41C121.75 93.65 121.84 93.45 122.17 93.45ZM127.95 93.47C128.15 93.46 128.25 93.79 128.25 94.41C128.25 95.28 128.19 95.38 127.65 95.38C127.14 95.38 127.04 95.26 127 94.55C126.97 94.02 127.07 93.69 127.3 93.61C127.49 93.54 127.79 93.48 127.95 93.47ZM125.12 93.69C125.76 93.69 125.84 93.77 125.84 94.41C125.84 95.05 125.76 95.13 125.12 95.13C124.48 95.13 124.4 95.05 124.4 94.41C124.4 93.77 124.48 93.69 125.12 93.69ZM124.88 97.8C126.01 97.79 127.85 97.94 128.98 98.13C130.1 98.33 131.76 98.71 134.28 99.47L134.28 102.36L115.72 102.36L115.72 101.28C115.72 100.68 115.8 100.02 115.9 99.82C116 99.61 116.73 99.24 117.53 98.98C118.32 98.73 119.84 98.36 120.9 98.17C121.96 97.98 123.75 97.82 124.88 97.8Z" />
		<path class="shp0" d="M207.21 113.55C206.5 113.91 205.75 114.52 205.4 115.04C204.86 115.84 204.79 116.22 204.7 118.84C204.61 121.52 204.65 121.84 205.18 122.94C205.53 123.67 206.14 124.41 206.73 124.82C207.26 125.2 208.56 125.98 209.62 126.55C210.68 127.12 211.8 127.9 212.1 128.28C212.55 128.85 212.65 129.26 212.64 130.54C212.63 131.4 212.55 132.36 212.45 132.68C212.35 133 211.97 133.4 211.61 133.58C211.24 133.76 210.62 133.86 210.22 133.79C209.81 133.72 209.29 133.39 209.01 133.01C208.6 132.46 208.52 131.99 208.53 130.24L208.53 128.13L204.68 128.13C204.79 133.54 204.88 134.19 205.3 135C205.66 135.67 206.16 136.14 206.99 136.56C208.02 137.09 208.46 137.16 210.7 137.16C212.85 137.15 213.39 137.07 214.26 136.61C214.82 136.32 215.53 135.73 215.83 135.3C216.32 134.59 216.38 134.18 216.44 131.02C216.49 128.54 216.42 127.33 216.2 126.83C216.03 126.45 215.51 125.79 215.04 125.38C214.58 124.97 213.09 124.01 211.73 123.25C209.64 122.08 209.2 121.73 208.87 120.97C208.6 120.33 208.52 119.63 208.6 118.62C208.69 117.45 208.82 117.09 209.29 116.74C209.6 116.5 210.19 116.31 210.58 116.31C210.98 116.31 211.58 116.52 211.91 116.78C212.46 117.21 212.52 117.43 212.57 119.44L212.63 121.63L216.49 121.63C216.48 116.97 216.39 116.25 216.02 115.49C215.76 114.96 215.25 114.3 214.87 114.02C214.5 113.75 213.82 113.39 213.36 113.24C212.89 113.08 211.59 112.95 210.46 112.95C208.76 112.95 208.21 113.05 207.21 113.55ZM33.51 125.12L33.51 137.04L37.61 137.04L37.61 126.69L42.19 126.69L42.19 137.04L46.05 137.04L46.05 113.2L42.17 113.2L42.07 122.95L37.61 123.07L37.61 113.2L33.51 113.2M49.42 125.12L49.42 137.04L53.52 137.04L53.52 126.93L58.7 126.81L58.82 123.31L53.52 123.31L53.52 116.57L59.79 116.57L59.79 113.2L49.42 113.2M61.11 113.61C61.21 113.85 61.7 115.18 62.21 116.57C62.72 117.96 63.61 120.4 64.2 121.99L65.26 124.88C64.21 127.49 63.2 130.12 62.33 132.41C61.46 134.69 60.75 136.67 60.75 136.8C60.75 136.95 61.53 137.02 62.72 136.98L64.69 136.92C66.68 130.67 67.34 128.85 67.44 128.85C67.54 128.86 68.23 130.67 68.97 132.89L70.31 136.92C73.55 137.02 74.49 136.99 74.49 136.92C74.49 136.86 73.45 134.12 72.18 130.84L69.87 124.88C71.36 120.59 72.29 117.96 72.9 116.27L74.01 113.2L69.91 113.2C69.13 115.9 68.64 117.56 68.3 118.62C67.96 119.72 67.62 120.44 67.5 120.3C67.4 120.17 66.83 118.55 66.24 116.69L65.16 113.32C61.1 113.18 60.95 113.21 61.11 113.61ZM79.88 113.62C79.96 113.85 80.3 115.88 80.65 118.14C80.99 120.39 81.65 124.61 82.11 127.53C82.56 130.44 83.05 133.53 83.19 134.39C83.33 135.25 83.49 136.2 83.55 136.5C83.65 137.01 83.78 137.04 85.58 137.04L87.51 137.04C87.85 135.27 88.46 131.99 89.08 128.61C89.7 125.23 90.25 122.34 90.31 122.17C90.36 122 90.51 121.87 90.65 121.87C90.78 121.87 90.95 122.38 91.03 123.01C91.11 123.64 91.53 126.05 91.98 128.37C92.42 130.69 92.96 133.59 93.16 134.81L93.54 137.04C96.53 137.04 97.4 136.99 97.4 136.92C97.4 136.86 97.62 135.42 97.89 133.73C98.16 132.04 98.98 126.89 99.7 122.29C100.42 117.69 101.01 113.76 101.01 113.56C101.01 113.27 100.65 113.2 99.2 113.2L97.4 113.2C97.21 114.6 96.93 116.96 96.67 119.34C96.4 121.72 96.07 124.6 95.94 125.72C95.8 126.85 95.64 128.04 95.57 128.37C95.51 128.7 95.41 128.92 95.35 128.85C95.29 128.79 94.91 126.94 94.51 124.76C94.11 122.57 93.61 119.86 93.41 118.74C93.2 117.61 92.89 115.93 92.73 115L92.43 113.32L88.84 113.18C87.63 119.63 86.98 123.16 86.61 125.17C86.24 127.19 85.87 128.76 85.78 128.66C85.69 128.57 85.45 127.19 85.26 125.6C85.06 124.01 84.65 120.57 84.34 117.95L83.78 113.2C79.96 113.2 79.77 113.24 79.88 113.62ZM104.17 117.23C103.75 119.45 102.77 124.76 101.97 129.03C101.18 133.31 100.53 136.86 100.53 136.92C100.53 136.99 101.4 137.04 102.46 137.04L104.39 137.04C104.57 135.83 104.76 134.63 104.92 133.6L105.23 131.72L109.57 131.86C109.87 133.92 110.06 135.08 110.19 135.78L110.41 137.04C114.3 137.04 114.5 137 114.4 136.62C114.34 136.39 114.02 134.74 113.69 132.95C113.36 131.16 112.71 127.64 112.23 125.12C111.76 122.6 111.1 119.08 110.76 117.29C110.43 115.5 110.1 113.85 110.04 113.62C109.95 113.25 109.61 113.2 107.43 113.2L104.92 113.2M116.44 125.12L116.44 137.04L120.06 137.04C120.06 125.84 120.14 122.63 120.24 122.68C120.34 122.73 121.5 125.99 122.83 129.91L125.24 137.04L128.98 137.04L128.98 113.2L125.36 113.2C125.37 124.01 125.28 126.94 125.16 126.81C125.05 126.67 123.93 123.56 122.69 119.88L120.42 113.2L116.44 113.2M132.35 125.12L132.35 137.04C137.96 137.04 140.15 136.91 140.85 136.76C141.64 136.58 142.42 136.2 142.93 135.73C143.38 135.33 143.92 134.67 144.14 134.27C144.47 133.66 144.54 132.42 144.59 125.78C144.63 120.71 144.55 117.58 144.38 116.75C144.18 115.82 143.88 115.27 143.23 114.64C142.74 114.18 141.92 113.67 141.39 113.5C140.79 113.32 138.9 113.2 136.39 113.2L132.35 113.2M147.78 125.12L147.78 137.04L158.39 137.04L158.27 133.55C152.64 133.34 151.76 133.23 151.76 133.01C151.76 132.84 151.79 131.35 151.82 129.7L151.88 126.69L157.18 126.69L157.18 123.07L151.88 123.07L151.88 116.57L158.39 116.57L158.39 113.2L147.78 113.2M161.04 125.12L161.04 137.04L165.14 137.04L165.26 127.53L167.07 127.41L170.11 136.92C173.17 137.02 174.06 136.96 174.07 136.86C174.07 136.76 173.34 134.47 172.44 131.77C171.1 127.73 170.87 126.83 171.17 126.73C171.37 126.66 171.83 126.27 172.21 125.86C172.58 125.45 172.99 124.74 173.11 124.28C173.23 123.81 173.34 121.92 173.34 120.06C173.35 116.98 173.3 116.6 172.78 115.61C172.34 114.77 171.91 114.37 170.91 113.85C169.62 113.19 169.53 113.18 165.32 113.19L161.04 113.2M176.47 125.12L176.47 137.04L187.08 137.04L187.08 133.43L180.57 133.43L180.57 126.69L185.87 126.69L185.87 123.07L180.57 123.07L180.57 116.57L187.08 116.57L187.08 113.2L176.47 113.2M189.97 125.12L189.97 137.04L193.83 137.04L193.95 127.53L195.83 127.53L198.85 136.92C201.59 137.03 202.5 137.01 202.63 136.95C202.77 136.89 202.18 134.76 201.25 131.95L199.62 127.05C201.08 125.74 201.62 125.06 201.76 124.7C201.91 124.33 202.03 122.42 202.03 120.36C202.03 117.03 201.98 116.59 201.48 115.61C201.05 114.75 200.66 114.38 199.61 113.86C198.32 113.21 198.2 113.19 194.13 113.19L189.97 113.2" />
		<path class="shp1" d="M136.45 125L136.45 133.43C139.14 133.43 139.46 133.34 139.96 132.83L140.55 132.23C140.55 121.15 140.45 118.01 140.31 117.65C140.16 117.29 139.76 116.96 139.28 116.81C138.85 116.67 138.04 116.56 137.48 116.57L136.45 116.57M165.17 120.28L165.14 124.04C167.2 124.04 168.06 123.93 168.39 123.8C168.82 123.62 169.07 123.26 169.26 122.53C169.41 121.97 169.49 120.67 169.45 119.65C169.37 118.11 169.27 117.7 168.81 117.24C168.38 116.81 167.93 116.67 166.73 116.6L165.2 116.51M193.95 116.73C193.84 116.82 193.77 118.5 193.79 120.46L193.83 124.04C196.47 124.05 196.99 123.94 197.44 123.59C197.99 123.16 198.05 122.92 198.13 120.99C198.17 119.82 198.15 118.51 198.07 118.08C197.96 117.47 197.73 117.21 197.08 116.93C196.62 116.73 195.77 116.57 195.19 116.57C194.62 116.57 194.06 116.64 193.95 116.73ZM107.22 119.49C107.12 119.81 106.77 121.77 106.44 123.86C106.11 125.94 105.83 127.81 105.83 128.01C105.83 128.29 106.17 128.37 107.4 128.37L108.97 128.37C108.74 126.6 108.41 124.51 108.1 122.59C107.78 120.67 107.49 119.06 107.46 119.01C107.42 118.96 107.31 119.18 107.22 119.49Z" />
		<path class="shp0" d="M33.9 141.8C33.83 141.9 37.13 145.34 41.24 149.45L48.7 156.91L48.7 201.59L93.42 201.59L125.11 233.26L156.7 201.59L201.54 201.59L201.54 156.67C213.03 145.18 216.32 141.79 216.25 141.73C216.18 141.66 175.15 141.61 125.07 141.61C74.99 141.62 33.96 141.7 33.9 141.8Z" />
		<path class="shp1" d="M51.98 145.89C51.92 146.13 51.69 147.29 51.47 148.48C51.26 149.67 51.03 150.89 50.97 151.19C50.89 151.61 50.98 151.73 51.35 151.73C51.7 151.73 51.85 151.55 51.89 151.07C51.94 150.54 52.09 150.4 52.62 150.35C53.18 150.3 53.29 150.39 53.34 150.95C53.38 151.36 53.56 151.63 53.82 151.67C54.12 151.72 54.24 151.57 54.25 151.19C54.25 150.89 54.03 149.57 53.75 148.24C53.48 146.92 53.2 145.75 53.14 145.65C53.09 145.55 52.83 145.47 52.57 145.47C52.31 145.47 52.05 145.66 51.98 145.89ZM56.43 148.58C56.41 151.58 56.44 151.73 56.89 151.73C57.31 151.73 57.38 151.57 57.38 150.53C57.38 149.73 57.48 149.32 57.68 149.32C57.84 149.31 58.14 149.82 58.34 150.44C58.54 151.06 58.84 151.63 59.01 151.71C59.17 151.79 59.36 151.77 59.43 151.67C59.49 151.57 59.38 151.01 59.19 150.41C58.86 149.44 58.86 149.27 59.19 148.78C59.39 148.49 59.55 147.86 59.55 147.4C59.55 146.94 59.42 146.36 59.25 146.12C59.05 145.84 58.52 145.64 57.7 145.56L56.46 145.43M64.96 145.91C64.59 146.29 64.53 146.71 64.57 148.68C64.6 150.39 64.71 151.11 64.97 151.37C65.17 151.57 65.71 151.73 66.18 151.73C66.78 151.73 67.12 151.58 67.38 151.19C67.58 150.89 67.75 150.35 67.75 149.99C67.74 149.52 67.62 149.32 67.32 149.32C67.05 149.32 66.81 149.61 66.66 150.11C66.53 150.54 66.25 150.89 66.06 150.89C65.76 150.89 65.68 150.46 65.63 148.66C65.57 146.48 65.58 146.44 66.12 146.5C66.51 146.54 66.67 146.73 66.72 147.22C66.76 147.7 66.91 147.88 67.26 147.88C67.64 147.88 67.74 147.72 67.74 147.16C67.74 146.76 67.53 146.22 67.26 145.95C67 145.69 66.47 145.47 66.09 145.47C65.71 145.47 65.21 145.67 64.96 145.91ZM70.78 145.65C70.72 145.75 70.44 146.97 70.17 148.36C69.9 149.75 69.67 151.08 69.67 151.31C69.67 151.54 69.83 151.73 70.03 151.73C70.24 151.73 70.48 151.41 70.58 151.01C70.71 150.46 70.89 150.28 71.3 150.28C71.71 150.29 71.87 150.46 71.96 151.01C72.05 151.53 72.22 151.73 72.57 151.73C72.83 151.73 73.05 151.68 73.05 151.61C73.05 151.55 72.82 150.33 72.55 148.9C72.28 147.48 72.01 146.13 71.95 145.89C71.89 145.66 71.63 145.47 71.37 145.47C71.11 145.47 70.85 145.55 70.78 145.65ZM75.1 145.79C75.04 145.96 75.01 147.34 75.04 148.86L75.1 151.61C77.49 151.73 77.63 151.68 77.63 151.25C77.63 150.86 77.47 150.77 76.78 150.77L75.94 150.77C75.94 145.91 75.88 145.47 75.57 145.47C75.37 145.47 75.16 145.61 75.1 145.79ZM80.42 145.76C80.35 145.93 80.08 147.24 79.81 148.66C79.54 150.09 79.32 151.36 79.32 151.49C79.32 151.63 79.53 151.73 79.8 151.73C80.15 151.73 80.3 151.55 80.34 151.07C80.39 150.54 80.53 150.4 81.06 150.35C81.65 150.3 81.73 150.37 81.73 151.01C81.73 151.57 81.83 151.73 82.21 151.73C82.55 151.73 82.68 151.58 82.67 151.19C82.65 150.89 82.41 149.51 82.12 148.12C81.67 145.89 81.54 145.58 81.08 145.52C80.78 145.47 80.49 145.58 80.42 145.76ZM94.33 145.77C94.2 145.94 93.91 147.21 93.67 148.6C93.43 149.99 93.2 151.27 93.15 151.43C93.1 151.6 93.27 151.73 93.54 151.73C93.89 151.73 94.05 151.53 94.14 151.01C94.23 150.46 94.39 150.29 94.8 150.28C95.21 150.28 95.39 150.46 95.53 151.01C95.65 151.51 95.85 151.73 96.19 151.73C96.56 151.73 96.65 151.61 96.56 151.19C96.5 150.89 96.28 149.73 96.07 148.6C95.86 147.48 95.64 146.31 95.58 146.01C95.51 145.68 95.29 145.47 95.01 145.47C94.76 145.47 94.45 145.61 94.33 145.77ZM98.74 145.61C98.62 145.71 98.54 147.13 98.56 148.76C98.6 151.56 98.63 151.73 99.08 151.73C99.5 151.73 99.57 151.57 99.57 150.53C99.57 149.62 99.65 149.33 99.93 149.33C100.15 149.33 100.4 149.74 100.59 150.45C100.76 151.06 101.03 151.63 101.2 151.71C101.36 151.79 101.58 151.77 101.68 151.66C101.78 151.56 101.67 150.94 101.43 150.28C101.06 149.21 101.05 149.05 101.38 148.78C101.62 148.59 101.76 148.09 101.76 147.4C101.76 146.67 101.62 146.2 101.34 145.95C101.11 145.76 100.48 145.56 99.94 145.51C99.4 145.46 98.86 145.51 98.74 145.61ZM106.94 145.61C106.82 145.71 106.74 147.13 106.76 148.76L106.8 151.73C108.39 151.74 109.09 151.57 109.39 151.37C109.89 151.04 109.93 150.82 109.94 148.66C109.95 146.73 109.88 146.25 109.54 145.95C109.31 145.76 108.68 145.56 108.14 145.51C107.6 145.46 107.06 145.51 106.94 145.61ZM113.16 145.66C113.01 145.75 112.71 146.92 112.48 148.24C112.26 149.57 112.03 150.89 111.97 151.19C111.89 151.61 111.97 151.73 112.34 151.73C112.69 151.73 112.84 151.55 112.89 151.07C112.93 150.54 113.08 150.4 113.61 150.35C114.17 150.3 114.27 150.38 114.27 150.89C114.27 151.22 114.44 151.57 114.64 151.67C114.84 151.77 115.08 151.77 115.18 151.66C115.28 151.55 115.11 150.2 114.81 148.65C114.5 147.1 114.12 145.75 113.96 145.66C113.8 145.56 113.61 145.48 113.55 145.48C113.48 145.48 113.31 145.56 113.16 145.66ZM117.78 145.78C117.36 146.05 117.33 146.33 117.42 148.72C117.53 151.34 117.53 151.36 118.19 151.61C118.64 151.78 119.06 151.78 119.52 151.61C120.08 151.4 120.19 151.21 120.24 150.34C120.29 149.47 120.23 149.33 119.82 149.33C119.45 149.33 119.32 149.51 119.27 150.11C119.24 150.62 119.09 150.89 118.85 150.89C118.56 150.89 118.48 150.46 118.43 148.66C118.37 146.58 118.4 146.44 118.85 146.44C119.23 146.44 119.33 146.6 119.33 147.16C119.33 147.72 119.44 147.88 119.82 147.88C120.22 147.88 120.3 147.72 120.3 146.92C120.3 146.19 120.18 145.89 119.82 145.71C119.55 145.58 119.09 145.47 118.79 145.47C118.48 145.47 118.03 145.61 117.78 145.78ZM122.73 148.59C122.71 151.58 122.73 151.73 123.19 151.73C123.62 151.73 123.67 151.57 123.67 150.41C123.67 149.16 123.71 149.08 124.28 149.08C124.85 149.08 124.88 149.16 124.88 150.41C124.88 151.57 124.94 151.73 125.36 151.73C125.82 151.73 125.84 151.57 125.84 148.72C125.84 147.07 125.79 145.71 125.72 145.71C125.66 145.71 125.44 145.66 125.24 145.59C124.95 145.5 124.88 145.73 124.88 146.8C124.88 148.05 124.85 148.12 124.28 148.12C123.72 148.12 123.67 148.03 123.61 146.86C123.57 145.91 123.46 145.58 123.15 145.52C122.8 145.45 122.75 145.79 122.73 148.59ZM128.75 146.74C128.61 147.43 128.36 148.79 128.2 149.76C128.03 150.72 127.95 151.57 128.01 151.63C128.08 151.7 128.27 151.74 128.44 151.74C128.6 151.74 128.79 151.41 128.86 151.01C128.95 150.46 129.11 150.29 129.52 150.28C129.93 150.28 130.11 150.46 130.24 151.01C130.37 151.51 130.57 151.73 130.91 151.73C131.25 151.73 131.36 151.61 131.28 151.31C131.22 151.08 130.99 149.86 130.77 148.6C130.55 147.34 130.27 146.13 130.15 145.89C130.04 145.66 129.73 145.47 129.47 145.47C129.1 145.47 128.95 145.73 128.75 146.74ZM133.44 145.63C133.33 145.72 133.25 147.13 133.28 148.76C133.31 151.56 133.35 151.73 133.8 151.73C134.26 151.73 134.28 151.57 134.28 148.6C134.28 146.15 134.21 145.47 133.96 145.47C133.78 145.47 133.55 145.54 133.44 145.63ZM137.2 145.85C136.66 146.2 136.63 146.34 136.66 148.62C136.68 150.39 136.79 151.11 137.05 151.37C137.25 151.57 137.77 151.74 138.2 151.74C138.64 151.75 139.16 151.56 139.4 151.32C139.67 151.04 139.82 150.5 139.82 149.75L139.83 148.6C138.39 148.6 138.14 148.71 138.14 148.96C138.14 149.16 138.3 149.33 138.5 149.33C138.74 149.33 138.86 149.57 138.86 150.05C138.86 150.45 138.73 150.81 138.56 150.86C138.4 150.9 138.12 150.9 137.96 150.86C137.75 150.8 137.66 150.13 137.66 148.6C137.66 146.45 137.66 146.44 138.26 146.44C138.74 146.44 138.86 146.56 138.86 147.04C138.86 147.48 138.99 147.64 139.34 147.64C139.72 147.64 139.83 147.48 139.83 146.92C139.83 146.44 139.65 146.07 139.28 145.83C138.99 145.63 138.52 145.47 138.26 145.47C137.99 145.47 137.52 145.64 137.2 145.85ZM142.12 145.62C142.01 145.72 141.93 147.13 141.96 148.76C142 151.69 142 151.73 142.54 151.67C143.02 151.62 143.09 151.46 143.14 150.35C143.2 149.18 143.25 149.08 143.8 149.08C144.37 149.08 144.41 149.16 144.41 150.41C144.41 151.57 144.47 151.73 144.89 151.73C145.35 151.73 145.37 151.59 145.31 148.67C145.26 145.96 145.2 145.59 144.83 145.54C144.47 145.48 144.41 145.67 144.41 146.8C144.41 148.05 144.37 148.12 143.8 148.12C143.25 148.12 143.2 148.03 143.14 146.86C143.1 145.94 142.98 145.58 142.71 145.53C142.5 145.49 142.24 145.53 142.12 145.62ZM157.09 145.89C157.02 146.13 156.74 147.48 156.47 148.9C156.2 150.33 155.98 151.55 155.98 151.61C155.98 151.68 156.2 151.73 156.46 151.73C156.81 151.73 156.96 151.55 157 151.07C157.05 150.54 157.2 150.4 157.73 150.35C158.29 150.3 158.39 150.38 158.39 150.89C158.39 151.22 158.55 151.57 158.75 151.67C158.95 151.77 159.2 151.77 159.3 151.66C159.39 151.56 159.27 150.36 159.01 149.01C158.76 147.66 158.46 146.31 158.35 146.01C158.24 145.71 157.95 145.47 157.68 145.47C157.42 145.47 157.16 145.66 157.09 145.89ZM161.56 148.57C161.53 151.58 161.55 151.73 162.01 151.73C162.42 151.73 162.49 151.57 162.49 150.53C162.49 149.73 162.59 149.32 162.79 149.32C162.96 149.32 163.23 149.86 163.39 150.53C163.63 151.47 163.8 151.73 164.18 151.73C164.44 151.73 164.66 151.65 164.66 151.55C164.67 151.45 164.5 150.91 164.3 150.35C163.97 149.44 163.97 149.27 164.3 148.78C164.5 148.49 164.66 147.86 164.66 147.4C164.66 146.94 164.53 146.36 164.36 146.11C164.16 145.81 163.64 145.62 162.82 145.54L161.59 145.41M169.72 148.6C169.72 151.45 169.76 151.73 170.14 151.67C170.48 151.62 170.59 151.29 170.69 150.05C170.81 148.65 170.85 148.55 171.09 149.08C171.23 149.42 171.5 150.15 171.68 150.72C171.9 151.42 172.15 151.74 172.43 151.74C172.81 151.73 172.85 151.42 172.85 148.6C172.85 146.22 172.78 145.49 172.55 145.55C172.37 145.6 172.23 146.15 172.19 147C172.16 147.75 172.02 148.36 171.89 148.36C171.76 148.36 171.6 148.23 171.55 148.06C171.49 147.9 171.25 147.24 171.01 146.61C170.71 145.83 170.43 145.46 170.14 145.46C169.76 145.47 169.72 145.78 169.72 148.6ZM179.78 145.64C179.71 145.75 179.42 147.13 179.14 148.72C178.86 150.31 178.68 151.67 178.75 151.73C178.82 151.8 179.04 151.77 179.24 151.67C179.44 151.57 179.6 151.22 179.6 150.89C179.6 150.38 179.71 150.3 180.27 150.35C180.8 150.4 180.94 150.54 180.99 151.07C181.03 151.55 181.18 151.73 181.53 151.73C181.88 151.73 182.01 151.58 181.99 151.19C181.98 150.89 181.73 149.51 181.45 148.12C181 145.92 180.86 145.58 180.42 145.52C180.13 145.48 179.84 145.53 179.78 145.64ZM184.21 148.59C184.19 151.23 184.24 151.73 184.55 151.73C184.83 151.73 184.91 151.4 184.91 150.17C184.91 149.29 185.01 148.6 185.15 148.6C185.28 148.6 185.61 149.31 185.87 150.17C186.26 151.41 186.45 151.73 186.84 151.73C187.3 151.73 187.32 151.59 187.26 148.66C187.21 146.12 187.14 145.59 186.84 145.59C186.57 145.59 186.44 145.98 186.35 147.16C186.28 148.02 186.14 148.56 186.05 148.36C185.96 148.16 185.69 147.46 185.45 146.8C185.21 146.12 184.84 145.56 184.62 145.51C184.28 145.45 184.23 145.81 184.21 148.59ZM190.34 146.01C190.28 146.31 190.06 147.53 189.85 148.72C189.64 149.92 189.42 151.08 189.36 151.31C189.28 151.61 189.39 151.73 189.73 151.73C190.08 151.73 190.25 151.53 190.33 151.01C190.42 150.46 190.58 150.29 191 150.28C191.4 150.28 191.58 150.46 191.72 151.01C191.84 151.51 192.05 151.73 192.38 151.73C192.72 151.73 192.83 151.61 192.76 151.31C192.7 151.08 192.48 149.92 192.27 148.72C192.06 147.53 191.84 146.31 191.77 146.01C191.69 145.63 191.49 145.47 191.06 145.47C190.63 145.47 190.43 145.63 190.34 146.01ZM194.91 145.63C194.8 145.72 194.73 147.13 194.75 148.76C194.79 151.56 194.82 151.73 195.27 151.73C195.71 151.73 195.76 151.58 195.75 150.23C195.75 149.4 195.83 148.81 195.93 148.92C196.03 149.03 196.24 149.46 196.38 149.88C196.53 150.31 196.79 150.65 196.96 150.65C197.14 150.65 197.46 150.16 197.67 149.57L198.05 148.48C198.16 151.55 198.22 151.73 198.65 151.73C199.11 151.73 199.13 151.59 199.07 148.67C199.02 145.96 198.96 145.59 198.59 145.54C198.26 145.49 198.05 145.85 197.63 147.16C197.33 148.09 197.03 148.85 196.96 148.85C196.9 148.85 196.6 148.09 196.3 147.16C195.99 146.19 195.62 145.47 195.44 145.47C195.26 145.47 195.02 145.54 194.91 145.63Z" />
		<path class="shp0" d="M57.4 147.38C57.38 148.26 57.43 148.36 57.92 148.3C58.37 148.25 58.46 148.09 58.46 147.4C58.46 146.72 58.36 146.54 57.94 146.48C57.48 146.41 57.41 146.52 57.4 147.38ZM99.59 147.38C99.57 148.26 99.62 148.36 100.11 148.3C100.56 148.25 100.65 148.09 100.65 147.4C100.65 146.72 100.55 146.54 100.13 146.48C99.67 146.41 99.6 146.52 99.59 147.38ZM107.76 148.6C107.76 150.75 107.77 150.77 108.37 150.77C108.96 150.77 108.97 150.75 108.97 148.6C108.97 146.45 108.96 146.44 108.37 146.44C107.77 146.44 107.76 146.45 107.76 148.6ZM162.51 147.38C162.49 148.26 162.54 148.36 163.03 148.3C163.48 148.25 163.57 148.09 163.57 147.4C163.57 146.72 163.47 146.54 163.05 146.48C162.59 146.41 162.52 146.52 162.51 147.38ZM52.31 148.3C52.31 148.73 52.29 149.17 52.27 149.27C52.25 149.36 52.44 149.49 52.69 149.54C53.11 149.62 53.14 149.54 52.97 148.82C52.87 148.37 52.67 147.89 52.54 147.76C52.39 147.6 52.31 147.79 52.31 148.3ZM94.63 147.8C94.52 147.89 94.44 148.32 94.46 148.76C94.49 149.3 94.62 149.57 94.86 149.57C95.1 149.57 95.23 149.33 95.22 148.9C95.22 148.54 95.13 148.1 95.03 147.94C94.92 147.77 94.74 147.71 94.63 147.8ZM113.27 148.51C113.22 149.05 113.3 149.44 113.49 149.53C113.66 149.62 113.84 149.63 113.9 149.57C113.96 149.5 113.96 149.04 113.91 148.54C113.85 148.05 113.7 147.64 113.58 147.64C113.46 147.64 113.32 148.03 113.27 148.51ZM157.42 148.3C157.42 148.73 157.41 149.17 157.38 149.27C157.36 149.36 157.55 149.49 157.8 149.54C158.22 149.62 158.25 149.54 158.08 148.82C157.98 148.37 157.78 147.89 157.65 147.76C157.5 147.6 157.42 147.79 157.42 148.3ZM71.02 148.24C70.94 148.44 70.88 148.82 70.88 149.08C70.88 149.35 71.04 149.57 71.24 149.57C71.49 149.57 71.6 149.31 71.6 148.72C71.6 148.26 71.5 147.88 71.38 147.88C71.26 147.88 71.1 148.04 71.02 148.24ZM80.76 148.36C80.76 148.63 80.71 149.01 80.64 149.21C80.56 149.45 80.68 149.57 81 149.57C81.38 149.57 81.46 149.44 81.37 149.02C81.3 148.73 81.25 148.35 81.25 148.18C81.25 148.02 81.14 147.88 81 147.88C80.87 147.88 80.76 148.1 80.76 148.36ZM180.08 148.18C180.08 148.35 180.03 148.73 179.96 149.02C179.87 149.44 179.95 149.57 180.33 149.57C180.7 149.57 180.78 149.44 180.69 149.02C180.63 148.73 180.57 148.35 180.57 148.18C180.57 148.02 180.46 147.88 180.33 147.88C180.2 147.88 180.09 148.02 180.08 148.18ZM129.25 148.82C129.23 149.34 129.33 149.57 129.58 149.57C129.83 149.57 129.92 149.36 129.88 148.92C129.85 148.57 129.7 148.23 129.55 148.18C129.39 148.12 129.26 148.38 129.25 148.82Z" />
		<path class="shp1" d="M175.02 148.48C175.02 148.74 175.29 148.84 175.99 148.84C176.68 148.84 176.95 148.74 176.95 148.48C176.95 148.22 176.68 148.12 175.99 148.12C175.29 148.12 175.02 148.22 175.02 148.48Z" />
		<path class="shp0" d="M190.72 148.82C190.7 149.34 190.81 149.57 191.06 149.57C191.3 149.57 191.4 149.36 191.36 148.92C191.32 148.57 191.17 148.23 191.02 148.18C190.86 148.12 190.74 148.38 190.72 148.82Z" />
		<path class="shp1" d="M84.72 150.83C84.66 151 84.74 151.43 84.91 151.79C85.08 152.16 85.31 152.37 85.41 152.28C85.51 152.18 85.59 151.74 85.59 151.31C85.59 150.77 85.47 150.53 85.22 150.53C85.01 150.53 84.79 150.67 84.72 150.83ZM147.54 151.13C147.54 151.46 147.65 151.73 147.78 151.73C147.91 151.73 147.96 151.92 147.88 152.16C147.75 152.53 147.78 152.54 148.13 152.22C148.35 152.02 148.52 151.56 148.52 151.19C148.51 150.69 148.39 150.53 148.02 150.53C147.67 150.53 147.54 150.69 147.54 151.13Z" />
		<path fill-rule="evenodd" class="shp2" d="M74.61 156.73L87.25 169.68L89.25 167.63C90.36 166.5 93.19 163.58 99.87 156.67L101.95 158.84C103.09 160.03 105.9 162.93 108.19 165.28C110.47 167.63 112.42 169.55 112.52 169.55C112.62 169.54 114.34 167.84 116.34 165.76C118.34 163.67 121.15 160.78 125.18 156.68L128.97 160.65C131.06 162.83 133.87 165.76 137.66 169.68L150.38 156.73L162.96 169.68L165.3 167.27C166.59 165.94 169.42 163.02 175.58 156.67L178.13 159.33C179.54 160.79 182.34 163.69 184.37 165.77C186.39 167.85 188.14 169.53 188.25 169.5C188.36 169.46 190.83 166.98 193.73 163.98C196.64 160.97 199.09 158.56 199.19 158.62C199.29 158.67 199.37 161.05 199.37 169.08L188.16 180.67L186.01 178.43C184.82 177.19 181.97 174.23 179.66 171.84C177.06 169.15 175.41 167.62 175.31 167.79C175.22 167.95 173.79 169.47 172.13 171.17C170.47 172.87 167.73 175.7 162.97 180.64L158.94 176.48C156.72 174.2 153.87 171.26 150.31 167.61L148.26 169.73C147.13 170.89 144.28 173.82 137.66 180.64L135.29 178.17C133.98 176.81 131.14 173.89 125 167.64L121.25 171.55C119.19 173.7 116.37 176.63 112.46 180.68L110.19 178.31C108.94 177.01 106.12 174.07 99.93 167.62L87.27 180.64L83.24 176.48C81.02 174.2 78.17 171.26 74.61 167.6L69.53 172.86C66.73 175.74 63.91 178.69 62.08 180.68L50.88 169.2L50.87 163.84C50.87 160.89 50.9 158.47 50.93 158.47C50.96 158.47 52.46 159.96 54.26 161.78C56.06 163.61 58.53 166.13 61.97 169.68L68.29 163.2M122.17 156.73C122.2 156.76 122.15 156.94 122.05 157.12C121.95 157.3 119.75 159.63 112.46 167.17L110.33 164.93C109.16 163.7 106.96 161.45 105.46 159.92C103.95 158.4 102.71 157.07 102.71 156.97C102.7 156.87 107.07 156.76 112.4 156.73C117.74 156.7 122.13 156.7 122.17 156.73ZM61.96 156.79C67.26 156.79 71.6 156.87 71.59 156.97C71.59 157.07 70.92 157.86 70.1 158.72C69.27 159.58 67.11 161.83 61.96 167.15L57.15 162.15C54.5 159.4 52.33 157.07 52.32 156.97C52.32 156.87 56.65 156.79 61.96 156.79ZM87.65 156.73C93.02 156.77 96.89 156.88 96.85 157.01C96.82 157.13 94.68 159.41 92.09 162.08C89.51 164.75 87.31 166.92 87.21 166.92C87.11 166.91 85.58 165.42 83.81 163.6C82.04 161.77 79.87 159.53 79 158.6C77.61 157.13 77.47 156.9 77.89 156.79C78.16 156.73 82.55 156.7 87.65 156.73ZM147.54 156.79L145.15 159.38C143.83 160.81 141.6 163.11 137.62 167.03L132.83 162.09C130.19 159.38 128.03 157.07 128.02 156.97C128.02 156.87 132.41 156.79 147.54 156.79ZM152.98 156.79L172.97 156.77L168.37 161.54C165.83 164.16 163.58 166.47 163.35 166.67C162.98 167 162.76 166.85 160.89 164.98C159.76 163.85 157.52 161.55 155.91 159.86M188.16 156.79C193.53 156.79 197.92 156.87 197.92 156.97C197.92 157.07 196.68 158.4 195.18 159.92C193.67 161.45 191.48 163.71 188.16 167.2L186.74 165.67C185.96 164.83 183.77 162.57 181.87 160.65C179.97 158.72 178.41 157.07 178.4 156.97C178.4 156.87 182.79 156.79 188.16 156.79ZM74.61 170.25L77.37 173.1C78.89 174.66 81.71 177.54 83.64 179.5C85.57 181.45 87.2 183.06 87.27 183.05C87.34 183.05 88.48 181.94 89.8 180.58C91.13 179.22 93.95 176.33 99.92 170.24L104.52 175.02C107.04 177.64 109.8 180.52 110.64 181.42C111.49 182.31 112.29 183.05 112.44 183.05C112.59 183.06 113.41 182.32 114.27 181.43C115.13 180.53 117.92 177.64 125.12 170.24L128.8 174.05C130.82 176.15 133.61 179.03 135 180.46C136.4 181.89 137.59 183.06 137.66 183.06C137.72 183.06 139.36 181.46 141.29 179.5C143.22 177.54 146.04 174.66 150.31 170.24L162.96 183.16L166.02 180.03C167.7 178.31 170.55 175.4 175.63 170.21L177.67 172.35C178.79 173.53 181.56 176.41 183.82 178.76C186.07 181.1 188.03 183.03 188.16 183.04C188.3 183.05 189.15 182.27 190.07 181.31C190.98 180.34 193.39 177.85 195.43 175.76C197.47 173.67 199.19 172.05 199.26 172.15C199.33 172.25 199.38 174.28 199.38 181L188.16 192.51L175.51 179.55L173.78 181.36C172.83 182.35 170 185.28 162.92 192.56L160.24 189.77C158.76 188.24 155.95 185.34 153.99 183.33C152.03 181.32 150.38 179.67 150.31 179.67C150.25 179.67 148.49 181.43 146.4 183.59C144.31 185.74 141.5 188.64 137.68 192.56L133.03 187.74C130.48 185.09 127.65 182.17 125.13 179.55L122.05 182.68C120.35 184.41 117.5 187.32 112.46 192.52L99.81 179.55L97.95 181.48C96.93 182.54 94.1 185.46 87.24 192.56L84.67 189.91C83.26 188.45 80.45 185.55 78.42 183.47C76.39 181.38 74.68 179.67 74.61 179.67C74.55 179.67 72.84 181.38 70.82 183.47C68.8 185.55 65.97 188.45 61.95 192.56L60.45 190.99C59.62 190.13 57.13 187.53 50.85 181L50.89 171.84L56.39 177.5C61.48 182.73 61.93 183.14 62.33 182.8C62.56 182.6 64.17 180.98 65.91 179.2C67.65 177.41 70.32 174.67 71.84 173.1M74.58 182.32C74.73 182.31 75.97 183.48 77.32 184.91C78.68 186.33 81.44 189.22 87.15 195.16L91.02 191.21C93.14 189.04 96 186.12 99.83 182.2L112.46 195.13L125.1 182.2L127.7 184.86C129.13 186.33 131.97 189.25 137.7 195.21L139.2 193.64C140.02 192.78 142.79 189.91 145.36 187.26C147.93 184.61 150.13 182.42 150.24 182.38C150.34 182.35 152.41 184.35 154.83 186.84C157.25 189.32 160.04 192.21 162.85 195.15L166.72 191.2C168.84 189.03 171.7 186.12 175.53 182.2L188.16 195.14L193.59 189.57C196.57 186.5 199.09 183.99 199.19 184C199.29 184 199.37 186.37 199.36 194.48L194.91 199.19L181.53 199.18L175.55 193.04L169.6 199.19L156.34 199.21L150.31 193.1L137.67 206.05L135.92 204.24C134.95 203.25 132.12 200.32 125.06 193.04L122.5 195.7C121.09 197.16 118.28 200.06 116.26 202.14C114.24 204.22 112.53 205.92 112.46 205.92C112.4 205.92 110.79 204.33 108.89 202.37C106.99 200.42 104.17 197.52 99.85 193.04L94.02 199.18L80.64 199.19L74.61 193.14L68.59 199.21L55.33 199.18L50.87 194.61L50.87 189.31C50.87 186.39 50.95 184 51.05 184C51.15 184 51.88 184.67 52.67 185.51C53.46 186.34 55.88 188.86 62.01 195.21L67.24 189.79C70.12 186.81 72.89 183.91 73.39 183.35C73.89 182.78 74.43 182.32 74.58 182.32ZM74.66 195.81C74.77 195.81 75.53 196.57 76.36 197.5C77.19 198.42 77.87 199.21 77.87 199.24C77.87 199.27 76.65 199.27 75.16 199.24C73.67 199.2 72.21 199.14 71.92 199.12C71.46 199.07 71.58 198.86 72.93 197.43C73.77 196.54 74.55 195.81 74.66 195.81ZM99.8 195.8C99.87 195.8 102.64 198.57 105.95 201.97C109.27 205.37 112.01 208.25 112.04 208.36C112.08 208.48 112.21 208.57 112.34 208.57C112.48 208.57 114.13 206.98 116.02 205.02C117.91 203.07 120.73 200.17 125.13 195.69L126.99 197.62C128.02 198.68 130.84 201.6 137.69 208.69L140.26 206.04C141.68 204.58 144.49 201.68 146.52 199.6C148.54 197.51 150.27 195.81 150.37 195.81C150.47 195.81 151.49 196.81 154.73 200.26L137.39 217.61L125 204.95L124.04 205.98C123.51 206.55 120.8 209.37 118.01 212.25C115.23 215.14 112.86 217.49 112.77 217.49C112.67 217.49 108.73 213.64 95.47 200.39L96.01 199.72C96.31 199.36 97.26 198.33 98.12 197.43C98.98 196.54 99.74 195.81 99.8 195.8ZM175.49 195.81C175.57 195.81 176.39 196.57 179 199.19L176.23 199.21C174.7 199.23 173.21 199.26 172.92 199.27C172.62 199.29 172.35 199.21 172.32 199.09C172.3 198.98 172.97 198.19 173.82 197.35C174.66 196.5 175.42 195.81 175.49 195.81ZM50.84 197.13L51.76 198.03C52.26 198.52 52.62 198.98 52.56 199.05C52.49 199.12 52.11 199.2 51.71 199.24C51.02 199.3 50.99 199.26 50.92 198.22M199.06 197.74C199.25 197.74 199.37 198.02 199.37 198.46C199.37 198.86 199.24 199.22 199.07 199.27C198.91 199.32 198.5 199.33 198.17 199.29C197.84 199.25 197.51 199.21 197.44 199.21C197.38 199.2 197.64 198.86 198.03 198.46C198.42 198.06 198.88 197.74 199.06 197.74ZM125.05 207.61C125.09 207.61 126.67 209.21 128.56 211.16C130.44 213.12 132.91 215.67 136.09 218.95L130.67 224.36C127.68 227.33 125.13 229.77 125 229.77C124.87 229.76 122.4 227.38 119.52 224.47C116.63 221.55 114.27 219.06 114.27 218.93C114.27 218.8 116.04 216.87 118.2 214.66C120.36 212.44 122.77 209.94 123.55 209.12C124.34 208.29 125.01 207.61 125.05 207.61Z" />
		<path class="shp0" d="M123.92 212.19C123.65 212.45 123.43 212.97 123.43 213.33C123.42 213.7 123.64 214.21 123.92 214.47C124.19 214.74 124.41 215.09 124.41 215.26C124.4 215.48 123.9 215.54 122.56 215.5C121.03 215.45 120.67 215.51 120.45 215.86C120.25 216.17 120.25 216.39 120.45 216.7C120.67 217.05 121.03 217.11 122.56 217.06L124.4 217C124.4 222.68 124.32 223.51 124.1 223.54C123.93 223.55 123.63 223.54 123.43 223.52C123.23 223.49 122.66 223.07 122.16 222.58C121.66 222.1 121.26 221.56 121.26 221.4C121.26 221.23 121.37 221.1 121.5 221.1C121.64 221.1 121.75 220.96 121.75 220.8C121.76 220.63 121.21 220.23 120.55 219.89C119.89 219.56 119.26 219.37 119.16 219.47C119.06 219.58 119.29 220.39 119.69 221.28C120.16 222.36 120.83 223.33 121.67 224.17C122.38 224.86 123.09 225.43 123.25 225.43C123.42 225.42 123.82 225.7 124.16 226.04C124.49 226.37 124.95 226.65 125.18 226.64C125.41 226.64 125.71 226.42 125.84 226.16C125.98 225.89 126.33 225.61 126.63 225.52C126.93 225.44 127.6 225.03 128.13 224.6C128.66 224.18 129.38 223.35 129.73 222.77C130.08 222.18 130.52 221.24 130.7 220.68C130.88 220.12 130.94 219.58 130.83 219.48C130.73 219.38 130.15 219.56 129.56 219.89C128.96 220.23 128.48 220.63 128.49 220.8C128.49 220.96 128.63 221.13 128.8 221.18C129 221.23 128.88 221.55 128.44 222.14C128.07 222.63 127.47 223.17 127.11 223.35C126.74 223.53 126.31 223.64 126.15 223.59C125.92 223.53 125.84 222.64 125.84 220.2L125.84 216.88C129.32 217.23 129.48 217.21 129.7 216.76C129.83 216.5 129.94 216.23 129.94 216.16C129.94 216.09 129.81 215.9 129.64 215.72C129.42 215.49 128.87 215.44 127.59 215.54C126.28 215.65 125.84 215.6 125.84 215.38C125.84 215.21 126.06 214.78 126.33 214.41C126.6 214.05 126.82 213.59 126.82 213.39C126.82 213.19 126.6 212.73 126.33 212.37C125.99 211.9 125.63 211.71 125.12 211.71C124.72 211.71 124.18 211.92 123.92 212.19Z" />
		<path class="shp2" d="M124.47 213.02C124.35 213.25 124.39 213.53 124.57 213.7C124.73 213.87 125.02 213.91 125.23 213.81C125.44 213.71 125.57 213.44 125.54 213.21C125.5 212.98 125.29 212.75 125.07 212.71C124.85 212.67 124.58 212.81 124.47 213.02Z" />
	</g>
</svg>