<?xml version="1.0" encoding="UTF-8" standalone="no"?>
<!-- Created with Inkscape (http://www.inkscape.org/) -->

<svg
   xmlns:dc="http://purl.org/dc/elements/1.1/"
   xmlns:cc="http://creativecommons.org/ns#"
   xmlns:rdf="http://www.w3.org/1999/02/22-rdf-syntax-ns#"
   xmlns:svg="http://www.w3.org/2000/svg"
   xmlns="http://www.w3.org/2000/svg"
   xmlns:sodipodi="http://sodipodi.sourceforge.net/DTD/sodipodi-0.dtd"
   xmlns:inkscape="http://www.inkscape.org/namespaces/inkscape"
   version="1.1"
   id="svg2"
   xml:space="preserve"
   width="793.92706"
   height="1122.5195"
   viewBox="0 0 793.92706 1122.5195"
   sodipodi:docname="varazhdin.svg"
   inkscape:version="0.92.5 (2060ec1f9f, 2020-04-08)"><metadata
     id="metadata8"><rdf:RDF><cc:Work
         rdf:about=""><dc:format>image/svg+xml</dc:format><dc:type
           rdf:resource="http://purl.org/dc/dcmitype/StillImage" /><dc:title></dc:title></cc:Work></rdf:RDF></metadata><defs
     id="defs6" /><sodipodi:namedview
     pagecolor="#ffffff"
     bordercolor="#666666"
     borderopacity="1"
     objecttolerance="10"
     gridtolerance="10"
     guidetolerance="10"
     inkscape:pageopacity="0"
     inkscape:pageshadow="2"
     inkscape:window-width="1920"
     inkscape:window-height="1001"
     id="namedview4"
     showgrid="false"
     inkscape:zoom="0.59465228"
     inkscape:cx="365.64711"
     inkscape:cy="466.13099"
     inkscape:window-x="-4"
     inkscape:window-y="-4"
     inkscape:window-maximized="1"
     inkscape:current-layer="g10" /><g
     id="g10"
     inkscape:groupmode="layer"
     inkscape:label="varazhdin"
     transform="matrix(1.3333333,0,0,-1.3333333,0,1122.5195)"><g
       id="g921"><path
         inkscape:connector-curvature="0"
         id="path12"
         style="fill:#106ba4;fill-opacity:1;fill-rule:nonzero;stroke:none"
         d="m 565.67188,608.45752 c 0,0 -13.33301,-7.2085 -20.9209,-15.01807 -11.7461,-12.08789 -11.37696,-20.51269 -11.37696,-20.51269 l 28.99512,-17.2168 c 0,0 15.78125,29.67041 3.30274,52.74756 z" /><path
         inkscape:connector-curvature="0"
         id="path14"
         style="fill:#106ba4;fill-opacity:1;fill-rule:nonzero;stroke:none"
         d="m 67.05273,278.62305 c 0,-16.85059 -1.83056,-23.07617 -14.31005,-37.36231 C 43.3623,230.52051 32.92383,225.1416 32.92383,225.1416 c 0,0 47.71289,-19.7793 110.10888,-59.34082 55.76856,-35.35742 88.82178,-70.3291 88.82178,-70.3291 l 22.38867,15.38379 41.9336,-32.9668 41.93457,32.9668 22.39062,-15.38379 c 0,0 33.05176,34.97168 88.82129,70.3291 62.39649,39.56152 110.10938,59.34082 110.10938,59.34082 0,0 -10.43946,5.37891 -19.81934,16.11914 -12.47851,14.28614 -14.31055,20.51172 -14.31055,37.36231 v 280.38379 c 0,16.84912 1.83204,23.07666 14.31055,37.36279 9.37988,10.73926 19.81934,16.1167 19.81934,16.1167 0,0 -47.71289,19.78027 -110.10938,59.34082 -55.76953,35.35889 -88.82129,70.32959 -88.82129,70.32959 l -22.39062,-15.38477 -41.93457,32.9668 -41.9336,-32.9668 -22.38867,15.38477 c 0,0 -33.05322,-34.9707 -88.82178,-70.32959 C 80.63672,632.2666 32.92383,612.48633 32.92383,612.48633 c 0,0 10.43847,-5.37744 19.81885,-16.1167 12.47949,-14.28613 14.31005,-20.51367 14.31005,-37.36279 z" /><path
         inkscape:connector-curvature="0"
         id="path16"
         style="fill:#106ba4;fill-opacity:1;fill-rule:nonzero;stroke:none"
         d="m 26.68311,608.45752 c 0,0 13.333,-7.2085 20.92089,-15.01807 11.74561,-12.08789 11.37793,-20.51269 11.37793,-20.51269 l -28.9956,-17.2168 c 0,0 -15.78174,29.67041 -3.30322,52.74756 z" /><path
         inkscape:connector-curvature="0"
         id="path18"
         style="fill:#106ba4;fill-opacity:1;fill-rule:nonzero;stroke:none"
         d="m 565.67188,229.17285 c 0,0 -13.33301,7.20703 -20.9209,15.01758 -11.7461,12.08789 -11.37696,20.51172 -11.37696,20.51172 l 28.99512,17.21777 c 0,0 15.78125,-29.66992 3.30274,-52.74707 z" /><path
         inkscape:connector-curvature="0"
         id="path20"
         style="fill:#106ba4;fill-opacity:1;fill-rule:nonzero;stroke:none"
         d="m 26.68311,229.17285 c 0,0 13.333,7.20703 20.92089,15.01758 11.74561,12.08789 11.37793,20.51172 11.37793,20.51172 l -28.9956,17.21777 c 0,0 -15.78174,-29.66992 -3.30322,-52.74707 z" /><path
         inkscape:connector-curvature="0"
         id="path22"
         style="fill:#ffffff;fill-opacity:1;fill-rule:nonzero;stroke:none"
         d="m 109.15234,258.63965 c 9.47559,5.46387 43.44727,26.61133 82.72364,69.59961 46.51904,50.91601 64.92822,75.23144 100.36523,115.01709 38.82715,43.59082 84.61524,78.75488 126.37402,98.90088 34.80372,16.79052 66.04297,21.62304 75.48536,22.7666 l 0.73437,0.12793 V 267.26758 L 296.17871,110.8584 108.73389,258.4375 Z" /><path
         inkscape:connector-curvature="0"
         id="path24"
         style="fill:#ffffff;fill-opacity:1;fill-rule:nonzero;stroke:none"
         d="m 97.93359,447.25488 c 3.74854,0.0278 11.72315,0.50635 15.55274,3.87647 6.86816,6.04394 7.83105,14.44189 1.64844,19.78027 -6.04395,5.21973 -14.56055,3.57129 -14.56055,3.57129 0,0 2.47266,4.6709 12.36328,6.59375 9.88965,1.92285 20.32959,0.5498 28.02148,-11.53809 7.69239,-12.08789 5.3584,-40.30615 -7.14257,-62.08837 -13.19873,-22.99805 -28.58008,-41.77344 -35.97412,-50.28809 l -0.32178,-0.36523 v 90.45458 l 0.41308,0.003 z" /><path
         inkscape:connector-curvature="0"
         id="path26"
         style="fill:#ffffff;fill-opacity:1;fill-rule:nonzero;stroke:none"
         d="m 97.52051,544.46973 v 25.89257 l 198.6582,156.40918 193.3877,-152.26123 -0.48926,-0.0737 c -7.27832,-1.18554 -32.38379,-5.71533 -52.51367,-14.69677 C 413.37109,549.3916 368.16895,527.22656 316.7832,478.05518 274.29346,437.396 220.89111,373.17383 188.5791,335.19727 c -35.53174,-41.75782 -66.66699,-60.80469 -66.66699,-60.80469 0,0 26.76172,30.61914 49.81592,65.20019 27.84033,41.75782 48.61084,86.83594 44.32373,135.89844 -3.29688,37.729 -27.53955,68.44141 -63.73633,74.3584 -22.64893,3.70264 -42.18994,-0.88184 -54.31299,-5.20801 z" /><path
         inkscape:connector-curvature="0"
         id="path28"
         style="fill:#ffffff;fill-opacity:1;fill-rule:nonzero;stroke:none"
         d="m 97.52051,534.37256 v -53.12451 l 0.36572,0.22314 c 3.45801,2.08985 9.24854,4.7124 17.52393,5.64942 12.40527,1.40429 27.38086,-3.20459 32.875,-17.85694 5.49511,-14.65185 5.49511,-43.95605 -14.65088,-74.72558 -13.72071,-20.95215 -27.94922,-37.82911 -35.63184,-46.46485 l -0.48193,-0.47851 v -80.32715 l 6.22119,-4.89844 0.18408,0.21094 c 40.46338,53.67187 74.93457,128.5791 84.65332,185.80469 8.40772,49.51757 -3.29687,70.6958 -16.4834,84.24853 -13.18701,13.55371 -35.53222,13.55371 -49.45068,10.25684 -8.11084,-1.9209 -17.83887,-5.5835 -24.54492,-8.30567 z" /><path
         inkscape:connector-curvature="0"
         id="path30"
         style="fill:#106ba4;fill-opacity:1;fill-rule:nonzero;stroke:none"
         d="m 242.17188,622.51807 c 0,-29.77979 24.22705,-54.00684 54.00683,-54.00684 29.78027,0 54.00684,24.22705 54.00684,54.00684 0,29.77978 -24.22657,54.00732 -54.00684,54.00732 -29.77978,0 -54.00683,-24.22754 -54.00683,-54.00732 z" /><path
         inkscape:connector-curvature="0"
         id="path32"
         style="fill:#106ba4;fill-opacity:1;fill-rule:nonzero;stroke:none"
         d="m 226.47705,301.45313 -14.43457,-35.57715 c -0.70215,-1.7168 -1.48242,-2.18457 -3.27685,-2.18457 h -2.57422 c -1.79395,0 -2.65284,0.46777 -3.27735,2.18457 l -14.35547,35.5 c -0.85839,2.26172 -0.39111,2.80761 1.94971,2.80761 h 3.04346 c 2.88672,0 3.66699,-0.46777 4.29053,-2.41894 l 7.25634,-18.72461 c 1.40479,-3.66602 2.10694,-8.03613 2.18506,-8.34863 h 0.38965 c 0.15576,0.3125 0.78027,4.52636 2.10645,8.27148 l 7.17871,18.80176 c 0.78027,1.95117 1.40332,2.41894 4.36816,2.41894 h 3.12109 c 2.34034,0 2.88672,-0.54589 2.0293,-2.73046 z" /><path
         inkscape:connector-curvature="0"
         id="path34"
         style="fill:#106ba4;fill-opacity:1;fill-rule:nonzero;stroke:none"
         d="m 247.46582,305.35547 c 12.79492,0 16.6958,-6.86621 16.6958,-16.07324 v -20.20801 c 0,-2.73047 -0.62451,-3.51172 -2.80859,-4.44727 -2.88672,-1.24902 -7.646,-2.02734 -14.04395,-2.02734 -13.80908,0 -17.39892,4.52344 -17.39892,12.63867 0,9.36231 5.22705,12.5625 17.71093,12.5625 3.04248,0 6.16309,-0.31348 7.48975,-0.39062 v 2.18554 c 0,4.91407 -1.9502,7.72168 -7.80176,7.72168 -3.90088,0 -6.55371,-1.24707 -8.19287,-3.74316 -1.09228,-1.64063 -1.56006,-1.87402 -3.35449,-1.17188 l -3.12061,1.32618 c -1.71679,0.78125 -2.2622,1.71679 -1.32617,3.51074 2.65283,5.07226 8.03565,8.11621 16.15088,8.11621 m -0.85889,-24.96777 c -5.93017,0 -7.49072,-1.87207 -7.49072,-5.07227 0,-3.19824 1.24951,-5.22656 7.33447,-5.22656 3.97852,0 6.39746,0.31152 7.80225,0.625 0.62353,0.2334 0.85791,0.38867 0.85791,1.09082 v 8.19238 c -1.63818,0.0791 -5.46094,0.39063 -8.50391,0.39063 z" /><path
         inkscape:connector-curvature="0"
         id="path36"
         style="fill:#106ba4;fill-opacity:1;fill-rule:nonzero;stroke:none"
         d="m 293.26318,305.35547 c 1.79395,0 2.41846,-0.54785 2.41846,-2.41895 v -3.43457 c 0,-1.79394 -0.62451,-2.41894 -2.41846,-2.41894 h -2.80859 c -3.04248,0 -5.38281,-0.31153 -7.41211,-0.93555 -0.70215,-0.15723 -0.78027,-0.5459 -0.78027,-0.93652 V 266.1875 c 0,-1.79492 -0.54639,-2.41895 -2.34082,-2.41895 h -4.29004 c -1.79541,0 -2.41895,0.62403 -2.41895,2.41895 v 32.37891 c 0,2.49609 0.54639,3.43359 3.04248,4.44726 2.88672,1.0918 7.56787,2.18457 14.51221,2.3418 z" /><path
         inkscape:connector-curvature="0"
         id="path38"
         style="fill:#106ba4;fill-opacity:1;fill-rule:nonzero;stroke:none"
         d="m 316.59277,305.35547 c 12.79395,0 16.69532,-6.86621 16.69532,-16.07324 v -20.20801 c 0,-2.73047 -0.62305,-3.51172 -2.8086,-4.44727 -2.88672,-1.24902 -7.64648,-2.02734 -14.04492,-2.02734 -13.80859,0 -17.39746,4.52344 -17.39746,12.63867 0,9.36231 5.22754,12.5625 17.71094,12.5625 3.04297,0 6.16308,-0.31348 7.49023,-0.39062 v 2.18554 c 0,4.91407 -1.95117,7.72168 -7.80371,7.72168 -3.89941,0 -6.55273,-1.24707 -8.19043,-3.74316 -1.09277,-1.64063 -1.56055,-1.87402 -3.35547,-1.17188 l -3.12109,1.32618 c -1.71582,0.78125 -2.26172,1.71679 -1.32617,3.51074 2.65234,5.07226 8.03711,8.11621 16.15136,8.11621 m -0.85839,-24.96777 c -5.92969,0 -7.49024,-1.87207 -7.49024,-5.07227 0,-3.19824 1.24805,-5.22656 7.33399,-5.22656 3.97851,0 6.39648,0.31152 7.80175,0.625 0.62403,0.2334 0.8584,0.38867 0.8584,1.09082 v 8.19238 c -1.63867,0.0791 -5.46094,0.39063 -8.5039,0.39063 z" /><path
         inkscape:connector-curvature="0"
         id="path40"
         style="fill:#106ba4;fill-opacity:1;fill-rule:nonzero;stroke:none"
         d="m 395.08203,305.35547 c 3.82227,0 7.10059,-0.625 9.28516,-1.01563 v 14.74805 c 0,1.79395 0.5459,2.41602 2.34082,2.41602 h 4.28906 c 1.7959,0 2.41895,-0.62207 2.41895,-2.41602 V 269.3877 c 0,-2.57618 -0.62305,-3.27832 -3.12012,-4.29297 -3.12012,-1.16993 -7.48926,-2.49512 -14.58887,-2.49512 -11.62598,0 -16.93066,5.77246 -16.93066,15.75977 v 10.68847 c 0,10.5332 5.45996,16.30762 16.30566,16.30762 m 1.7168,-8.27246 c -6.16406,0 -8.97266,-2.73047 -8.97266,-8.26856 V 278.6709 c 0,-5.07031 3.04297,-7.80274 8.73828,-7.80274 2.80957,0 5.22852,0.31348 7.17774,0.8584 0.54687,0.23438 0.625,0.39063 0.625,0.85938 v 23.48437 c -1.79395,0.39063 -4.44727,1.0127 -7.56836,1.0127 z" /><path
         inkscape:connector-curvature="0"
         id="path42"
         style="fill:#106ba4;fill-opacity:1;fill-rule:nonzero;stroke:none"
         d="m 432.68848,314.63867 v -0.70215 c 0,-3.58886 -1.1709,-4.75879 -4.75977,-4.75879 h -0.5459 c -3.58886,0 -4.75976,1.16993 -4.75976,4.75879 v 0.70215 c 0,3.58985 1.1709,4.68262 4.75976,4.68262 h 0.5459 c 3.58887,0 4.75977,-1.09277 4.75977,-4.68262 M 432.2207,301.84375 V 266.1875 c 0,-1.79492 -0.625,-2.41895 -2.41894,-2.41895 h -4.29199 c -1.79395,0 -2.34082,0.62403 -2.34082,2.41895 v 35.65625 c 0,1.79395 0.54687,2.33984 2.34082,2.33984 h 4.29199 c 1.79394,0 2.41894,-0.54589 2.41894,-2.33984 z" /><path
         inkscape:connector-curvature="0"
         id="path44"
         style="fill:#106ba4;fill-opacity:1;fill-rule:nonzero;stroke:none"
         d="m 460.30664,305.35547 c 11.0791,0 16.22754,-5.77442 16.22754,-15.68262 V 266.1875 c 0,-1.79492 -0.62305,-2.41895 -2.41797,-2.41895 h -4.29101 c -1.79493,0 -2.34082,0.62403 -2.34082,2.41895 v 23.25098 c 0,5.14843 -2.80958,7.64453 -8.50391,7.64453 -3.04199,0 -5.46094,-0.46778 -7.48926,-1.0127 -0.39062,-0.15722 -0.54687,-0.46875 -0.54687,-0.78125 V 266.1875 c 0,-1.79492 -0.5459,-2.41895 -2.34082,-2.41895 h -4.29102 c -1.79492,0 -2.41895,0.62403 -2.41895,2.41895 v 32.06738 c 0,2.4961 0.5459,3.43164 3.04297,4.44727 3.1211,1.24707 7.88086,2.65332 15.37012,2.65332 z" /><path
         inkscape:connector-curvature="0"
         id="path46"
         style="fill:#106ba4;fill-opacity:1;fill-rule:nonzero;stroke:none"
         d="m 415.66406,376.28125 c 11.0791,0 16.22852,-5.77344 16.22852,-15.68262 v -23.48535 c 0,-1.79297 -0.62403,-2.41797 -2.41895,-2.41797 h -4.29101 c -1.79492,0 -2.34082,0.625 -2.34082,2.41797 v 23.25195 c 0,5.14844 -2.80762,7.64356 -8.50391,7.64356 -3.04297,0 -5.46191,-0.46777 -7.49023,-1.01172 -0.39063,-0.15723 -0.5459,-0.46777 -0.5459,-0.78223 v -29.10156 c 0,-1.79297 -0.5459,-2.41797 -2.34082,-2.41797 h -4.29102 c -1.79492,0 -2.41894,0.625 -2.41894,2.41797 v 32.06738 c 0,2.49707 0.5459,3.43262 3.04297,4.44727 3.12109,1.24707 7.88085,2.65332 15.37011,2.65332 z" /><path
         inkscape:connector-curvature="0"
         id="path48"
         style="fill:#106ba4;fill-opacity:1;fill-rule:nonzero;stroke:none"
         d="m 474.33594,334.69531 h -3.97949 c -2.7295,0 -3.27637,0.31348 -4.13477,2.1836 l -4.83789,10.37793 c -1.24805,2.73046 -2.96387,3.82324 -6.24121,3.82324 h -4.68067 v -13.88965 c 0,-1.87012 -0.54589,-2.49512 -2.49707,-2.49512 h -3.97851 c -1.95117,0 -2.5752,0.625 -2.5752,2.49512 v 52.74414 c 0,1.87305 0.62403,2.49609 2.5752,2.49609 h 3.97851 c 1.95118,0 2.49707,-0.62304 2.49707,-2.49609 v -30.42871 h 4.05664 l 10.61036,13.80957 c 1.24902,1.79395 1.95117,1.79395 4.68164,1.79395 h 3.82324 c 2.41894,0 2.96484,-1.0127 1.56055,-2.80762 l -11.78125,-14.58985 c 2.34082,-1.16992 4.05664,-3.27734 5.61718,-6.47558 l 6.78809,-13.65528 c 1.09277,-2.10449 0.78027,-2.88574 -1.48242,-2.88574 z" /><path
         inkscape:connector-curvature="0"
         id="path50"
         style="fill:#106ba4;fill-opacity:1;fill-rule:nonzero;stroke:none"
         d="m 372.37793,269.54199 v -3.35449 c 0,-1.79492 -0.54688,-2.41895 -2.34082,-2.41895 h -27.30762 c -1.79394,0 -2.41797,0.62403 -2.41797,2.41895 v 3.35449 c 0,1.24903 0.15528,1.63965 0.8584,2.41895 l 19.11426,24.02929 h -17.16504 c -1.79394,0 -2.41894,0.625 -2.41894,2.41895 v 3.43457 c 0,1.79395 0.625,2.33984 2.41894,2.33984 h 26.52734 c 1.79493,0 2.34082,-0.54589 2.34082,-2.33984 v -3.43457 c 0,-1.16992 -0.15625,-1.71484 -0.85742,-2.57324 l -19.27246,-23.875 h 18.17969 c 1.79394,0 2.34082,-0.625 2.34082,-2.41895 m -15.72656,38.6875 h -0.87891 c -2.12598,0 -2.56641,0.0742 -4.32812,1.90723 l -7.48047,7.18652 c -0.87989,0.95508 -0.80567,1.83496 1.09961,1.83496 h 3.00683 c 1.83399,0 2.34766,-0.0752 3.44824,-1.24707 l 4.47266,-4.18066 4.18164,4.18066 c 1.02637,1.10059 1.75977,1.24707 3.59375,1.24707 h 3.29981 c 1.90625,0 1.97949,-0.87988 1.09961,-1.83496 l -7.48047,-7.18652 c -1.83301,-1.90723 -2.34668,-1.90723 -4.03418,-1.90723 z" /><path
         inkscape:connector-curvature="0"
         id="path52"
         style="fill:#ffffff;fill-opacity:1;fill-rule:nonzero;stroke:none"
         d="m 264.12402,611.36475 -2.02392,-15.19825 0.15576,-0.11084 19.2456,-13.98242 0.13526,-0.11572 c 3.06787,1.46924 13.17578,6.30859 13.82764,6.62012 0,0.67871 0,9.84814 0,13.47461 l 0.002,0.1289 -18.40381,13.37207 -0.20654,-0.0654 -12.48926,-4.05859 -0.24268,-0.0645 z" /><path
         inkscape:connector-curvature="0"
         id="path54"
         style="fill:#ffffff;fill-opacity:1;fill-rule:nonzero;stroke:none"
         d="m 331.36816,646.85938 -14.40039,2.64794 -0.26074,0.0498 -7.90039,-10.87305 0.0537,-0.21777 6.90625,-21.26953 0.0977,-0.32422 c 3.45117,-1.1211 12.16797,-3.95361 12.81347,-4.16406 0.49707,0.52246 8.19532,8.6123 10.55567,11.09179 l -0.0537,0.1792 -7.41211,22.81153 -0.39942,0.0684 z" /><path
         inkscape:connector-curvature="0"
         id="path56"
         style="fill:#ffffff;fill-opacity:1;fill-rule:nonzero;stroke:none"
         d="m 254.30811,654.28613 c 6.20068,8.15332 14.72558,14.44873 24.57812,17.88965 l 0.13721,0.0469 3.89746,-7.49512 -0.14356,-0.29932 -7.26806,-13.43506 -0.2085,-0.0508 -15.15625,-2.78613 -0.10058,0.10986 -5.82081,5.91553 0.085,0.10449 z" /><path
         inkscape:connector-curvature="0"
         id="path58"
         style="fill:#ffffff;fill-opacity:1;fill-rule:nonzero;stroke:none"
         d="m 313.49707,672.16748 c 9.84766,-3.44531 18.36621,-9.7417 24.5625,-17.89502 l 0.0762,-0.0889 -5.92676,-6.02392 -0.50195,0.0898 -14.58105,2.68018 -0.27051,0.0532 -7.42383,13.71875 0.084,0.16846 3.82421,7.35888 0.15723,-0.0615 z" /><path
         inkscape:connector-curvature="0"
         id="path60"
         style="fill:#ffffff;fill-opacity:1;fill-rule:nonzero;stroke:none"
         d="m 348.74316,621.37012 c -0.22949,-10.71094 -3.67968,-20.64258 -9.41503,-28.86621 l -0.0781,-0.0991 -7.34668,3.66796 -0.2041,0.0908 -2.06055,15.49024 0.12598,0.12305 10.63867,11.17871 0.19531,-0.0337 8.14551,-1.35938 -9.8e-4,-0.19238 z" /><path
         inkscape:connector-curvature="0"
         id="path62"
         style="fill:#ffffff;fill-opacity:1;fill-rule:nonzero;stroke:none"
         d="m 311.37793,572.17822 c -4.81348,-1.45605 -9.91797,-2.23877 -15.19922,-2.23877 -5.28516,0 -10.39111,0.78369 -15.20605,2.24121 l -0.1333,0.0176 1.23535,8.2378 0.0156,0.15429 13.95655,6.68213 0.13964,0.0596 13.84668,-6.6289 0.23047,-0.13038 1.24903,-8.33398 -0.13477,-0.0606 z" /><path
         inkscape:connector-curvature="0"
         id="path64"
         style="fill:#ffffff;fill-opacity:1;fill-rule:nonzero;stroke:none"
         d="m 253.00098,592.5459 c -5.72852,8.22607 -9.16797,18.15918 -9.39014,28.86865 l 0.005,0.14941 8.33496,1.39063 0.19336,-0.19873 10.41455,-10.9419 0.16016,-0.17431 -2.06153,-15.47363 -0.12988,-0.0566 -7.43066,-3.70948 -0.0962,0.146 z" /><path
         inkscape:connector-curvature="0"
         id="path66"
         style="fill:#ffffff;fill-opacity:1;fill-rule:nonzero;stroke:none"
         d="m 253.30664,623.6084 c 2.55078,-2.68018 9.8877,-10.39014 10.37305,-10.8999 0.6333,0.20605 9.02929,2.93408 12.60693,4.09668 l 0.20313,0.0693 7.07324,21.78028 -0.15381,0.2246 -7.76709,10.69043 -0.22559,-0.0576 -14.8413,-2.72901 -0.0376,-0.15429 -7.41944,-22.83301 0.18848,-0.1875 z" /><path
         inkscape:connector-curvature="0"
         id="path68"
         style="fill:#ffffff;fill-opacity:1;fill-rule:nonzero;stroke:none"
         d="m 283.95801,663.60645 c -1.77197,-3.27393 -6.81543,-12.59424 -7.14942,-13.21192 0.3877,-0.5332 5.47705,-7.53955 7.72461,-10.63281 l 0.13086,-0.18897 h 22.84864 l 0.18652,0.0166 c 2.17676,2.99658 7.45508,10.2622 7.85058,10.80517 -0.29199,0.53906 -5.64453,10.43213 -7.28515,13.46289 l -0.27246,0.008 h -23.90137 l -0.13281,-0.25927 z" /><path
         inkscape:connector-curvature="0"
         id="path70"
         style="fill:#ffffff;fill-opacity:1;fill-rule:nonzero;stroke:none"
         d="m 310.45605,582.0835 -13.54199,6.48388 -0.0205,0.15528 v 13.23242 l 0.0249,0.24219 18.12939,13.17382 0.25391,0.18164 12.79394,-4.15673 0.14063,-0.0532 2.02051,-15.17822 -0.20508,-0.14453 -19.33594,-14.04883 -0.25977,0.11231 z" /></g></g></svg>